<svg xmlns="http://www.w3.org/2000/svg" xmlns:xlink="http://www.w3.org/1999/xlink" width="1080" zoomAndPan="magnify" viewBox="0 0 810 423.74999" height="565" preserveAspectRatio="xMidYMid meet" version="1.0"><defs><clipPath id="82b40adfa1"><path d="M 0.238281 4.273438 L 809.761719 4.273438 L 809.761719 419.527344 L 0.238281 419.527344 Z M 0.238281 4.273438 " clip-rule="nonzero"/></clipPath></defs><g clip-path="url(#82b40adfa1)"><rect x="-81" width="972" fill="#ffffff" y="-42.374999" height="508.499988" fill-opacity="1"/></g><path fill="#100f0d" d="M 417.222656 347.378906 L 224.601562 347.378906 L 219.453125 347.484375 C 145.847656 347.484375 86.144531 287.796875 86.144531 214.1875 C 86.144531 140.582031 145.847656 80.878906 219.453125 80.878906 C 261.921875 80.878906 299.757812 100.757812 324.171875 131.703125 C 370.960938 191.023438 355.285156 257.464844 314.089844 314.550781 L 395.628906 314.550781 C 440.03125 239.707031 444.210938 161.761719 389.699219 89.171875 C 351.316406 38.054688 288.433594 7.03125 216.867188 7.03125 C 98.929688 7.03125 4.574219 90.714844 4.574219 210.894531 C 4.574219 338.945312 96.117188 414.757812 220.238281 414.757812 L 477.667969 414.757812 L 485.109375 396.792969 L 485.699219 396.792969 L 528.636719 292.085938 L 529.050781 292.085938 L 557.953125 219.875 L 583.097656 155.289062 L 595.972656 122.214844 L 609 155.171875 L 640.480469 234.832031 C 658.730469 281.046875 672.699219 316.324219 685.105469 347.378906 L 544.359375 347.378906 L 516.726562 414.757812 L 806.910156 414.757812 L 633.417969 15.039062 L 558.796875 15.039062 C 511.164062 126.214844 463.378906 235.917969 417.222656 347.378906 " fill-opacity="1" fill-rule="nonzero"/></svg>